<svg fill="#000000" xmlns="http://www.w3.org/2000/svg" viewBox="0 0 24 24" width="24px" height="24px"><path d="M21,12c0,2.163-0.767,4.15-2.044,5.704c-0.322,0.392-0.287,0.965,0.072,1.324l0,0c0.422,0.422,1.117,0.382,1.494-0.081 C22.07,17.052,23,14.633,23,12s-0.93-5.052-2.478-6.948C20.145,4.59,19.45,4.55,19.028,4.972l0,0 c-0.359,0.359-0.394,0.932-0.072,1.324C20.233,7.85,21,9.837,21,12z"/><path d="M3,12c0-2.163,0.767-4.15,2.044-5.704c0.322-0.392,0.287-0.965-0.072-1.324l0,0C4.55,4.55,3.855,4.59,3.478,5.052 C1.93,6.948,1,9.367,1,12s0.93,5.052,2.478,6.948c0.378,0.462,1.072,0.503,1.494,0.081l0,0c0.359-0.359,0.394-0.932,0.072-1.324 C3.767,16.15,3,14.163,3,12z"/><path d="M16.181,7.819l-0.003,0.003c-0.351,0.351-0.377,0.897-0.09,1.302C16.662,9.938,17,10.93,17,12s-0.338,2.062-0.912,2.876 c-0.286,0.406-0.261,0.951,0.09,1.302l0.003,0.003c0.426,0.426,1.146,0.394,1.498-0.094C18.51,14.937,19,13.524,19,12 s-0.49-2.937-1.32-4.088C17.327,7.424,16.607,7.393,16.181,7.819z"/><path d="M7.819,16.181l0.003-0.003c0.351-0.351,0.377-0.897,0.09-1.302C7.338,14.062,7,13.07,7,12s0.338-2.062,0.912-2.876 c0.286-0.406,0.261-0.951-0.09-1.302L7.819,7.819C7.393,7.393,6.673,7.424,6.32,7.912C5.49,9.063,5,10.476,5,12 s0.49,2.937,1.32,4.088C6.673,16.576,7.393,16.607,7.819,16.181z"/><g><circle cx="12" cy="12" r="3"/></g></svg>